<?xml version="1.0" encoding="utf-8"?>
<!-- Generator: Adobe Illustrator 19.1.0, SVG Export Plug-In . SVG Version: 6.00 Build 0)  -->
<svg version="1.1" id="Layer_1" xmlns="http://www.w3.org/2000/svg" xmlns:xlink="http://www.w3.org/1999/xlink" x="0px" y="0px"
	 viewBox="0 0 595.3 124.4" style="enable-background:new 0 0 595.3 124.4;" xml:space="preserve">
<style type="text/css">
	.st0{fill:#0067A1;}
	.st1{fill:#FFFFFF;}
	.st2{fill:#055AAB;}
	.st3{fill:#0069A2;}
	.st4{fill:#0069A2;stroke:#FFFFFF;stroke-miterlimit:10;}
	.st5{fill:#0069A2;stroke:#FFFFFF;stroke-width:0.25;stroke-miterlimit:10;}
	.st6{fill:#231F20;stroke:#231F20;stroke-width:0.4;stroke-miterlimit:10;}
	.st7{fill:#231F20;stroke:#231F20;stroke-width:0.5;stroke-miterlimit:10;}
	.st8{fill-rule:evenodd;clip-rule:evenodd;fill:#4367AF;}
	.st9{fill:none;}
	.st10{fill-rule:evenodd;clip-rule:evenodd;fill:#176AA4;}
	.st11{fill-rule:evenodd;clip-rule:evenodd;fill:#FFFFFF;}
	.st12{fill:#176AA4;}
</style>
<g>
	<defs>
		<rect id="SVGID_1_" x="-271.8" y="41.5" width="196" height="73.4"/>
	</defs>
	<use xlink:href="#SVGID_1_"  style="overflow:visible;fill:#231F20;"/>
	<clipPath id="SVGID_2_">
		<use xlink:href="#SVGID_1_"  style="overflow:visible;"/>
	</clipPath>
	<g style="clip-path:url(#SVGID_2_);">
		
			<image style="overflow:visible;" width="1920" height="1080" xlink:href="E84A3F9F.jpg"  transform="matrix(0.5777 0 0 0.5777 -272.6455 -8.9437)">
		</image>
	</g>
	<use xlink:href="#SVGID_1_"  style="overflow:visible;fill:none;stroke:#231F20;stroke-width:0.5;stroke-miterlimit:10;"/>
</g>
<g>
	<polygon class="st8" points="20,80.2 19.7,80.2 16.8,86.5 22.5,86.5 20,80.2 	"/>
	<polygon class="st9" points="20,80.2 19.7,80.2 16.8,86.5 22.5,86.5 20,80.2 	"/>
	<polygon class="st8" points="92.9,80.2 92.5,80.2 89.7,86.5 95.4,86.5 92.9,80.2 	"/>
	<polygon class="st9" points="92.9,80.2 92.5,80.2 89.7,86.5 95.4,86.5 92.9,80.2 	"/>
	<polygon class="st9" points="25.7,93.5 24.1,89.7 15.5,89.7 13.9,93.5 9.7,93.5 16.5,77 17.4,76.1 18.7,75.4 20.6,75.4 22.2,76.1 
		22.8,77 29.9,93.5 25.7,93.5 	"/>
	<polygon class="st9" points="98.6,93.5 97,89.7 88.4,89.7 86.8,93.5 82.6,93.5 89.4,77 90.3,76.1 91.6,75.4 93.5,75.4 95.1,76.1 
		95.7,77 102.8,93.5 98.6,93.5 	"/>
	<polygon class="st9" points="31.8,92.9 29.9,88.7 33.1,90 36.9,90.6 38.8,90.3 40.4,89.4 41.1,88.1 40.4,86.8 38.8,85.9 36.3,85.3 
		33.4,84.6 31.5,83.7 30.2,82.1 29.6,80.2 30.2,78.3 31.2,76.7 33.1,75.4 36.6,74.8 40.4,75.1 43.6,76.4 43.6,79.6 40.4,78.6 
		36.9,78.3 35,78.6 34,79.2 34,80.2 35,81.1 36.3,82.1 41.1,83.4 43.3,84.6 44.6,86.8 44.6,89.1 43.6,91.3 41.4,92.9 38.8,93.8 
		35.6,93.8 31.8,92.9 	"/>
	<polygon class="st9" points="119.4,92.2 119.4,92.2 116.5,93.5 113.3,94.1 110.1,93.8 107.3,92.5 104.7,90.3 103.1,87.8 
		102.8,84.6 103.1,81.8 104.7,79.2 106.9,77 109.8,75.4 113,75.1 116.2,75.4 119.4,77 119.4,81.1 116.8,79.6 113.7,78.9 111.1,79.2 
		108.9,80.5 107.3,82.4 106.9,84.6 107.3,86.8 108.9,88.7 111.1,90 113.7,90 116.8,89.4 119.4,87.8 119.4,92.2 	"/>
	<polygon class="st9" points="64.4,86.8 64.1,89.1 62.5,91.3 60.3,92.9 57.4,93.8 54.5,93.8 51.6,92.9 49.4,91.3 48.1,89.1 
		47.5,86.8 47.5,75.1 51.9,75.1 51.9,85.9 52.6,87.8 54.2,89.4 56.1,89.7 58.3,89.4 59.9,87.8 60.3,85.9 60.3,75.1 64.4,75.1 
		64.4,86.8 	"/>
	<path class="st10" d="M124.7,3.8l-1.6-2.2l-2.2-1.3L118.3,0H6.1L3.8,0.3L1.9,1.9L1,3.8L0.6,6.3v115.9v1.6l0.3,0.6l1-0.3l1.6-0.9
		l1.6-1.6l6.7-7.9l1.3-1.3l1.6-0.3l1.6,0.3l1.3,1.3L24,120l1.6,1.3l1.3,0.6l1.6-0.3l1.6-1.3l6.7-7l1.9-0.9h1.6l1.9,0.9l6.4,7
		l1.3,1.3l1.6,0.3l1.3-0.6l1.6-0.9l5.8-6.6l1.9-1.3h1.6l1.9,1.3l6.1,6.6l1.3,1.3l1.3,0.3l1.3-0.3l1.3-1.3l6.1-6.6l1.6-1.3l1.6-0.3
		l1.6,0.3l1.3,1.3l3.2,3.5l3.2,3.2l1.6,1.3l1.3,0.3l1.3-0.3l1.3-1.3l6.7-6.6l1.6-1.3l1.3-0.3l1.6,0.3l1.6,1.3l8,8.5l1.3,1.3l1.3,0.9
		h0.6l0.6-0.6V6.3L124.7,3.8z M50.5,25l1.6-3.5l2.6-2.8l2.9-1.9l3.5-0.9h3.8l3.5,0.9l3.2,1.9l2.6,2.8l1.3,3.5l0.6,3.8l-0.6,3.5
		l-1.3,3.5l-2.6,2.8l-3.2,1.9l-3.5,0.9h-3.8l-3.5-0.9l-2.9-1.9l-2.6-2.8l-1.6-3.5l-0.3-3.5L50.5,25z"/>
	<polygon class="st1" points="62.2,87.1 62.2,76.3 58,76.3 58,86.5 57.4,88.3 55.8,89.5 53.8,90.1 51.6,89.5 50.3,88.3 49.7,86.5 
		49.7,76.3 45.2,76.3 45.2,87.1 45.5,89.5 47.1,91.6 49.4,93.1 52.2,93.9 55.1,93.9 58,93.1 60.2,91.6 61.8,89.5 62.2,87.1 	"/>
	<polygon class="st1" points="117.2,92.1 117.2,88.3 114.7,89.7 111.5,90.3 108.9,90 107,88.9 105.4,87.1 104.7,85 105.4,82.9 
		107,81.1 108.9,80.2 111.5,79.9 114.7,80.5 117.2,82 117.2,77.8 114.3,76.6 111.1,76 107.6,76.6 104.7,77.8 102.5,79.9 101.2,82.6 
		100.6,85.3 101.2,88 102.8,90.6 105.1,92.4 108.3,93.6 111.5,93.9 114.7,93.6 117.2,92.4 117.2,92.1 	"/>
	<path class="st1" d="M23.3,93.6h4.2l-6.8-15.6l-0.7-1.2l-1.6-0.6h-2l-1.6,0.6l-0.7,1.2L7.4,93.6h4.2l1.3-3.6H22L23.3,93.6
		L23.3,93.6z M17.8,80.8l2.6,6h-5.9l2.6-6H17.8L17.8,80.8z"/>
	<path class="st1" d="M96.3,93.9h4.2l-6.8-15.6l-0.7-1.2l-1.6-0.6h-2l-1.6,0.6l-0.7,1.2l-6.8,15.6h4.2l1.3-3.6H95L96.3,93.9
		L96.3,93.9z M90.8,81.1l2.6,6h-5.9l2.6-6H90.8L90.8,81.1z"/>
	<polygon class="st1" points="80.1,79.8 70.5,90.9 80.1,90.9 78.5,94.7 67.6,94.7 66,94.3 65.1,93.4 65.4,91.8 74.7,80.1 65.4,80.1 
		65.4,76.3 78.2,76.3 79.4,76.6 80.4,77.3 80.4,78.5 80.1,79.8 	"/>
	<polygon class="st11" points="29.5,93.8 27.6,89.8 30.8,91.1 34.6,91.7 36.6,91.4 38.2,90.5 38.8,89.2 38.2,88 36.6,87.1 34,86.5 
		31.1,85.8 29.2,84.9 27.9,83.4 27.3,81.5 27.9,79.7 28.9,78.1 30.8,76.9 34.3,76.3 38.2,76.6 41.4,77.8 41.4,80.9 38.2,80 
		34.6,79.7 32.7,80 31.8,80.6 31.8,81.5 32.7,82.5 34,83.4 38.8,84.6 41,85.8 42.3,88 42.3,90.1 41.4,92.3 39.1,93.8 36.6,94.8 
		33.4,94.8 29.5,93.8 	"/>
</g>
<polygon class="st12" points="375.4,65.5 375.4,22.5 358.8,22.5 358.8,63.1 356.3,70.3 349.9,75.1 342.2,77.5 333.3,75.1 
	328.1,70.3 325.6,63.1 325.6,22.5 307.7,22.5 307.7,65.5 309,75.1 315.4,83.4 324.3,89.4 335.8,93 347.3,93 358.8,89.4 367.8,83.4 
	374.2,75.1 375.4,65.5 "/>
<polygon class="st12" points="595.3,85.8 595.3,70.2 585,76.2 572.3,78.6 562,77.4 554.4,72.6 548,65.5 545.4,57.1 548,48.7 
	554.4,41.6 562,38 572.3,36.8 585,39.2 595.3,45.2 595.3,28.4 583.8,23.7 571,21.3 556.9,23.7 545.4,28.4 536.5,36.8 531.4,47.5 
	528.8,58.3 531.4,69 537.8,79.8 546.7,87 559.5,91.7 572.3,92.9 585,91.7 595.3,87 595.3,85.8 "/>
<path class="st12" d="M220.4,91.8h16.9L210,29.7l-2.6-4.8l-6.5-2.4h-7.8l-6.5,2.4l-2.6,4.8l-27.3,62.1h16.9l5.2-14.3h36.5
	L220.4,91.8L220.4,91.8z M198.3,40.4l10.4,23.9h-23.4l10.4-23.9H198.3L198.3,40.4z"/>
<path class="st12" d="M511.9,92.9h16.9l-27.3-62.1l-2.6-4.8l-6.5-2.4h-7.8l-6.5,2.4l-2.6,4.8l-27.3,62.1h16.9l5.2-14.3h36.4
	L511.9,92.9L511.9,92.9z M489.8,41.6l10.4,23.9h-23.4l10.4-23.9H489.8L489.8,41.6z"/>
<polygon class="st12" points="447,36.4 408.7,80.7 447,80.7 440.6,95.8 397.2,95.8 390.8,94.6 387,90.8 388.3,84.5 425.3,37.7 
	388.3,37.7 388.3,22.5 439.4,22.5 444.5,23.8 448.3,26.3 448.3,31.4 447,36.4 "/>
<polygon class="st10" points="245.1,92.6 237.4,76.6 250.2,81.5 265.5,84 273.2,82.7 279.6,79 282.1,74.1 279.6,69.2 273.2,65.5 
	263,63.1 251.5,60.6 243.8,56.9 238.7,50.8 236.1,43.4 238.7,36 242.5,29.9 250.2,25 264.2,22.5 279.6,23.7 292.4,28.7 292.4,40.9 
	279.6,37.3 265.5,36 257.8,37.3 254,39.7 254,43.4 257.8,47.1 263,50.8 282.1,55.7 291.1,60.6 296.2,69.2 296.2,77.8 292.4,86.4 
	283.4,92.6 273.2,96.2 260.4,96.2 245.1,92.6 "/>
</svg>
